<?xml version="1.0" standalone="no"?>
<!DOCTYPE svg PUBLIC "-//W3C//DTD SVG 20010904//EN"
 "http://www.w3.org/TR/2001/REC-SVG-20010904/DTD/svg10.dtd">
<svg version="1.0" xmlns="http://www.w3.org/2000/svg"
 width="912.000000pt" height="268.000000pt" viewBox="0 0 912.000000 268.000000"
 preserveAspectRatio="xMidYMid meet">

<g transform="translate(0.000000,268.000000) scale(0.100000,-0.100000)"
fill="#ffffff" stroke="none">
<path d="M934 2450 c-191 -28 -399 -162 -477 -307 -87 -164 -93 -424 -12 -582
79 -154 272 -268 496 -292 106 -11 268 3 364 31 38 11 71 20 72 20 2 0 3 18 3
40 l0 40 -58 -29 c-82 -41 -161 -54 -294 -49 -125 6 -186 26 -277 92 -57 42
-126 137 -151 210 -45 127 -47 312 -5 453 34 113 134 227 253 285 54 27 76 32
131 31 89 -1 170 -18 270 -59 46 -19 86 -33 89 -30 3 3 7 28 10 55 l4 50 -53
15 c-119 34 -248 43 -365 26z"/>
<path d="M1600 1865 l0 -574 344 -3 345 -3 6 48 c4 27 4 51 1 54 -4 4 -100 -3
-214 -16 -114 -12 -232 -23 -262 -24 l-55 -2 0 255 0 255 193 3 192 2 0 30 0
30 -192 2 -193 3 -3 213 -2 212 27 11 c56 22 192 22 321 0 68 -12 134 -24 148
-27 16 -4 24 -2 24 7 1 8 5 33 9 57 l8 42 -348 0 -349 0 0 -575z"/>
<path d="M2590 1863 l0 -578 314 3 315 3 6 32 c4 17 9 40 11 50 7 23 -8 22
-163 -9 -138 -28 -221 -28 -287 0 l-36 15 0 530 0 531 -80 0 -80 0 0 -577z"/>
<path d="M3440 1865 l0 -574 344 -3 345 -3 6 48 c4 27 4 51 1 54 -4 4 -100 -3
-214 -16 -114 -12 -232 -23 -262 -24 l-55 -2 -3 258 -2 257 195 0 195 0 0 30
0 30 -195 0 -195 0 0 215 0 215 28 11 c58 24 200 22 347 -5 77 -14 141 -24
143 -22 1 2 5 26 9 55 l6 51 -347 0 -346 0 0 -575z"/>
<path d="M4428 2434 c-9 -8 -11 -1114 -3 -1136 4 -10 52 -12 253 -7 222 5 253
7 311 28 103 36 156 67 200 117 142 162 52 376 -183 435 -25 6 -48 15 -51 19
-3 4 24 22 59 39 145 71 206 194 161 322 -19 54 -56 94 -115 124 -100 51 -141
57 -390 62 -129 3 -238 2 -242 -3z m472 -86 c103 -62 140 -156 106 -270 -34
-119 -125 -168 -314 -168 l-102 0 0 220 0 219 43 11 c23 6 47 13 52 15 6 2 44
4 85 4 69 1 81 -2 130 -31z m-3 -521 c139 -72 197 -184 162 -310 -14 -53 -62
-103 -133 -140 -59 -31 -66 -32 -181 -32 -66 0 -128 3 -137 7 -17 7 -18 29
-18 259 l0 251 128 -4 c115 -3 132 -6 179 -31z"/>
<path d="M5557 2433 c-7 -7 -10 -1137 -3 -1144 2 -2 41 -3 85 -1 l81 4 0 274
0 274 70 0 69 0 123 -174 c68 -96 159 -226 203 -290 79 -115 80 -116 115 -111
19 2 61 7 93 11 31 3 57 10 57 15 0 4 -66 88 -148 186 -261 314 -302 367 -294
373 4 4 34 14 67 24 119 36 188 84 228 161 30 58 30 174 0 231 -40 75 -134
135 -252 160 -68 14 -481 21 -494 7z m463 -74 c89 -54 130 -126 130 -229 -1
-165 -106 -245 -325 -245 l-100 0 0 235 0 235 55 12 c95 19 200 16 240 -8z"/>
<path d="M6670 1867 c0 -316 2 -576 4 -578 2 -2 38 -3 80 -1 l76 4 0 574 0
574 -80 0 -80 0 0 -573z"/>
<path d="M7010 2426 c0 -7 3 -33 6 -58 l6 -45 117 29 c97 24 126 27 176 21
l60 -8 5 -540 5 -540 75 0 75 0 5 540 5 540 60 8 c51 7 78 3 175 -21 63 -16
116 -29 116 -28 1 0 4 27 7 59 l6 57 -450 0 c-372 0 -449 -2 -449 -14z"/>
<path d="M8008 2368 c22 -40 86 -158 142 -263 57 -104 127 -233 156 -286 l54
-97 0 -215 0 -215 81 -4 c44 -2 83 -1 85 1 2 2 4 104 4 227 0 215 1 224 24
271 36 71 306 645 306 649 0 2 -18 4 -39 4 l-39 0 -45 -102 c-25 -57 -87 -193
-137 -303 -50 -110 -96 -212 -102 -227 -5 -16 -13 -28 -17 -28 -4 0 -80 149
-169 330 l-162 330 -91 0 -90 0 39 -72z"/>
<path d="M3000 290 c0 -100 3 -120 15 -120 11 0 15 12 15 50 0 44 3 50 21 50
15 0 25 -13 41 -50 11 -28 27 -50 34 -50 18 0 18 -1 -7 54 -18 42 -19 48 -5
62 9 9 16 32 16 54 0 48 -27 70 -87 70 l-43 0 0 -120z m94 84 c32 -32 11 -84
-34 -84 -29 0 -30 1 -30 50 0 46 2 50 24 50 14 0 32 -7 40 -16z"/>
<path d="M3310 290 l0 -120 60 0 c71 0 81 18 13 22 l-48 3 0 45 0 45 43 3 c56
4 54 22 -4 22 l-45 0 3 38 c3 37 3 37 51 40 68 4 58 22 -13 22 l-60 0 0 -120z"/>
<path d="M3657 403 c-3 -4 -21 -59 -40 -120 -26 -83 -32 -113 -22 -113 7 0 19
16 25 35 11 32 15 35 50 35 36 0 40 -3 48 -32 8 -32 32 -52 32 -26 0 7 -16 60
-34 118 -32 97 -47 123 -59 103z m22 -65 c4 -13 11 -35 15 -50 6 -26 4 -28
-24 -28 -16 0 -30 3 -30 6 0 13 23 94 26 94 3 0 8 -10 13 -22z"/>
<path d="M3920 290 l0 -120 60 0 c71 0 81 18 13 22 l-48 3 -3 108 c-4 148 -22
138 -22 -13z"/>
<path d="M4410 290 l0 -120 60 0 c71 0 81 18 13 22 l-48 3 0 45 0 45 43 3 c56
4 54 22 -4 22 l-45 0 3 38 c3 37 3 37 51 40 68 4 58 22 -13 22 l-60 0 0 -120z"/>
<path d="M4728 399 c-54 -31 -41 -90 27 -119 36 -15 45 -24 45 -43 0 -36 -24
-53 -55 -39 -14 7 -25 18 -25 27 0 8 -7 15 -15 15 -8 0 -15 -6 -15 -14 0 -21
48 -56 76 -56 31 0 64 33 64 65 0 25 -34 65 -56 65 -6 0 -22 8 -34 18 -40 32
-4 86 41 62 10 -6 19 -17 19 -25 0 -8 7 -15 15 -15 24 0 18 27 -11 49 -29 23
-50 26 -76 10z"/>
<path d="M4980 401 c0 -6 15 -11 33 -13 l32 -3 3 -107 c1 -60 7 -108 12 -108
5 0 11 48 12 108 l3 107 33 3 c64 6 30 22 -48 22 -44 0 -80 -4 -80 -9z"/>
<path d="M5357 403 c-3 -4 -21 -59 -40 -120 -26 -83 -32 -113 -22 -113 7 0 19
16 25 35 11 32 15 35 50 35 36 0 40 -3 48 -32 8 -32 32 -52 32 -26 0 7 -16 60
-34 118 -32 97 -47 123 -59 103z m22 -65 c4 -13 11 -35 15 -50 6 -26 4 -28
-24 -28 -16 0 -30 3 -30 6 0 13 23 94 26 94 3 0 8 -10 13 -22z"/>
<path d="M5600 401 c0 -6 15 -11 33 -13 l32 -3 3 -107 c1 -60 7 -108 12 -108
5 0 11 48 12 108 l3 107 33 3 c64 6 30 22 -48 22 -44 0 -80 -4 -80 -9z"/>
<path d="M5920 290 l0 -120 60 0 c33 0 60 4 60 10 0 6 -20 10 -45 10 l-45 0 0
50 0 50 40 0 c22 0 40 5 40 10 0 6 -18 10 -40 10 l-40 0 0 40 0 40 45 0 c25 0
45 5 45 10 0 6 -27 10 -60 10 l-60 0 0 -120z"/>
</g>
</svg>
